<svg width="88" height="29" viewBox="0 0 88 29" fill="none" xmlns="http://www.w3.org/2000/svg">
<path fill-rule="evenodd" clip-rule="evenodd" d="M10.2277 18.8916L0.733276 13.4728V8.31033L10.2125 2.8999L19.6917 8.31033V13.9453L10.2277 18.8916ZM10.2125 26.0999L1.45703 21.1033L4.96703 19.0977L10.1973 22.0836L19.6917 17.1205V20.6895L10.2125 26.0999Z" fill="white"/>
<path fill-rule="evenodd" clip-rule="evenodd" d="M80.8138 23.2882H78.5054L82.9255 16.224C82.7374 16.301 82.5425 16.3647 82.3442 16.4116C81.8849 16.5289 81.412 16.5909 80.9375 16.5959C80.1935 16.6026 79.4562 16.4602 78.7698 16.177C77.4715 15.6459 76.4445 14.6188 75.9225 13.3286C75.653 12.6583 75.5157 11.9429 75.5225 11.2224C75.5157 10.4751 75.6649 9.7328 75.9598 9.04413C76.2394 8.39569 76.6512 7.81091 77.1716 7.32667C77.7037 6.84075 78.3241 6.4604 79.002 6.20571C80.4833 5.6645 82.1103 5.6645 83.5916 6.20571C84.2678 6.4604 84.8898 6.84075 85.422 7.32667C85.9423 7.81091 86.3542 8.39569 86.6355 9.04413C86.9304 9.7328 87.0779 10.4751 87.0711 11.2224C87.0745 11.6597 87.0253 12.0954 86.927 12.5209C86.8304 12.9197 86.6965 13.3085 86.5304 13.6838C86.3728 14.0357 86.1982 14.3775 86.005 14.7109C85.8203 15.0276 85.6508 15.3275 85.4966 15.6107L80.8138 23.2882ZM81.3002 7.47747C80.7731 7.47077 80.2477 7.56293 79.7545 7.74724C78.8494 8.08738 78.1359 8.79447 77.7919 9.68923C77.6054 10.1768 77.5122 10.6962 77.519 11.2174C77.5156 11.7167 77.6156 12.2126 77.8139 12.6718C78.6291 14.5719 80.846 15.4582 82.7679 14.654C83.2187 14.4663 83.6289 14.1965 83.9763 13.8547C84.3187 13.5146 84.5915 13.1124 84.7831 12.6718C84.9814 12.2093 85.083 11.7116 85.078 11.209C85.0847 10.6879 84.9915 10.1684 84.8051 9.68085C84.461 8.78777 83.7458 8.08235 82.8425 7.74221C82.3493 7.55958 81.8273 7.46909 81.3002 7.47747ZM73.1277 23.2883H71.2786V16.6279C71.2786 16.2057 71.2397 15.7851 71.1617 15.3712C71.0939 14.9976 70.96 14.639 70.7668 14.3106C70.5821 14.0056 70.3177 13.7576 70.0024 13.5884C69.5974 13.3907 69.1482 13.2969 68.6974 13.317C68.2093 13.3153 67.7263 13.4024 67.2704 13.5767C66.8331 13.7459 66.4399 14.0123 66.123 14.3558C65.7772 14.7446 65.5145 15.1953 65.3484 15.6862C65.1467 16.3045 65.0501 16.9513 65.0637 17.6014V23.2866H63.2112L63.179 6.07681H65.0298L65.0637 13.3924C65.3857 12.9668 65.784 12.6032 66.2365 12.3183C66.9721 11.8542 67.8297 11.6146 68.7025 11.6313C69.594 11.6313 70.3346 11.7738 70.9058 12.0569C71.4447 12.315 71.9091 12.7004 72.2616 13.1779C72.5955 13.6538 72.826 14.1933 72.9396 14.7613C73.0633 15.3528 73.1243 15.956 73.1226 16.5592L73.1277 23.2883ZM53.6439 23.1307C54.4167 23.4307 55.2421 23.5798 56.0726 23.5731C56.8726 23.5781 57.6623 23.4105 58.3911 23.0855C59.1385 22.7403 59.7961 22.2293 60.3131 21.5942L60.4436 21.4384L59.0199 20.2755L58.8894 20.4431C58.547 20.8721 58.1233 21.2289 57.642 21.4954C57.1607 21.7568 56.62 21.8908 56.0726 21.8841C55.4743 21.8942 54.8811 21.7802 54.3303 21.549C53.8303 21.3362 53.3795 21.0245 53.0049 20.6341C52.6355 20.2437 52.3524 19.7829 52.1711 19.2786C51.7864 18.1945 51.7864 17.0115 52.1711 15.9274C52.3524 15.4248 52.6355 14.964 53.0033 14.5736C53.3778 14.1832 53.8286 13.8715 54.3286 13.6587C54.8794 13.4275 55.4726 13.3135 56.0709 13.3236C56.598 13.3202 57.1183 13.4476 57.5844 13.6922C58.0793 13.9586 58.5233 14.3088 58.8962 14.7277L59.0216 14.8651L60.5029 13.7676L60.3537 13.6001C59.8148 12.9969 59.1606 12.5059 58.4301 12.1524C57.6945 11.8055 56.8878 11.6279 56.0726 11.6329C55.2421 11.6262 54.4167 11.7754 53.6439 12.0753C52.9236 12.3534 52.2711 12.7774 51.7253 13.3202C51.1881 13.8631 50.7661 14.5082 50.4813 15.2136C49.8848 16.7518 49.8848 18.4559 50.4813 19.9941C50.7644 20.7011 51.1881 21.3446 51.7253 21.8875C52.2711 22.4287 52.9236 22.8526 53.6439 23.1307ZM42.2969 23.573C41.48 23.5831 40.6699 23.4323 39.9123 23.1307C39.2174 22.8475 38.5886 22.4236 38.0683 21.8874C37.5446 21.3412 37.1413 20.6961 36.8819 19.989C36.6023 19.2165 36.4633 18.4022 36.4735 17.5812C36.4667 16.7803 36.6108 15.9844 36.8955 15.2354C37.1633 14.5316 37.57 13.8882 38.0921 13.342C38.6073 12.8075 39.2259 12.3802 39.9106 12.0853C40.6428 11.7753 41.4309 11.6195 42.2274 11.6295C43.0274 11.6161 43.8223 11.772 44.5561 12.0886C45.1985 12.3735 45.7764 12.7857 46.251 13.3001C46.7086 13.7994 47.0611 14.3842 47.2916 15.0175C47.5204 15.6409 47.6373 16.2977 47.639 16.9612V18.1609H38.3327C38.3649 18.4642 38.4209 18.7641 38.5022 19.059C38.6276 19.5265 38.8412 19.9655 39.1293 20.3559C39.4581 20.7966 39.8733 21.1652 40.353 21.4383C40.8614 21.7349 41.5173 21.884 42.3241 21.884C43.0359 21.8807 43.7375 21.7081 44.368 21.3814C44.9883 21.0798 45.5086 20.6123 45.8713 20.0325L45.9951 19.8298L47.3747 20.9759L47.273 21.1267C46.7493 21.946 45.9984 22.5962 45.1087 23.0033C44.2223 23.387 43.2647 23.5814 42.2969 23.573ZM38.3531 16.4736H45.7832C45.7612 16.0966 45.668 15.7263 45.5069 15.3845C45.3205 14.984 45.0595 14.6221 44.7358 14.3188C44.3985 14.0055 44.0053 13.7575 43.5748 13.5883C43.1223 13.4073 42.6393 13.3168 42.1512 13.3185C41.5054 13.2951 40.8648 13.4475 40.3021 13.7625C39.8428 14.029 39.4394 14.3825 39.1157 14.8014C38.8513 15.1482 38.6412 15.5319 38.4971 15.9425C38.4242 16.1905 38.3785 16.358 38.3531 16.4736ZM30.7432 23.2883H32.7381V7.90654H38.5479V6.07681H24.9333V7.90654H30.7432V23.2883Z" fill="white"/>
</svg>
